<svg width="400" height="250" xmlns="http://www.w3.org/2000/svg">
  <defs>
    <linearGradient id="bg-gradient-tts" x1="0%" y1="0%" x2="100%" y2="100%">
      <stop offset="0%" style="stop-color:#50C878;stop-opacity:1" />
      <stop offset="100%" style="stop-color:#3DA55F;stop-opacity:1" />
    </linearGradient>
  </defs>
  
  <rect width="400" height="250" fill="url(#bg-gradient-tts)"/>
  
  <!-- Text document -->
  <rect x="80" y="70" width="80" height="80" rx="5" fill="#FFFFFF" opacity="0.9"/>
  <line x1="95" y1="90" x2="145" y2="90" stroke="#50C878" stroke-width="3"/>
  <line x1="95" y1="105" x2="145" y2="105" stroke="#50C878" stroke-width="3"/>
  <line x1="95" y1="120" x2="130" y2="120" stroke="#50C878" stroke-width="3"/>
  <line x1="95" y1="135" x2="145" y2="135" stroke="#50C878" stroke-width="3"/>
  
  <!-- Arrow -->
  <path d="M 180 110 L 240 110" stroke="#FFFFFF" stroke-width="4" opacity="0.9"/>
  <path d="M 230 100 L 240 110 L 230 120" stroke="#FFFFFF" stroke-width="4" fill="none" opacity="0.9"/>
  
  <!-- Speaker -->
  <path d="M 260 90 L 280 90 L 300 70 L 300 150 L 280 130 L 260 130 Z" fill="#FFFFFF" opacity="0.9"/>
  <path d="M 310 85 Q 325 110 310 135" stroke="#FFFFFF" stroke-width="3" fill="none" opacity="0.9"/>
  <path d="M 320 75 Q 340 110 320 145" stroke="#FFFFFF" stroke-width="3" fill="none" opacity="0.8"/>
  
  <text x="200" y="230" font-family="Arial, sans-serif" font-size="18" font-weight="bold" fill="#FFFFFF" text-anchor="middle">
    Text to Speech
  </text>
</svg>
